<svg width="110" height="86" viewBox="0 0 110 86" fill="none" xmlns="http://www.w3.org/2000/svg">
<path d="M2.67334 12.0303H109.61V85.5491H2.67334V12.0303Z" fill="#3C3C3C"/>
<path d="M16.0405 1.79639H49.4582V13.1584H16.0405V1.79639Z" fill="white"/>
<path d="M16.0404 1.79642L16.0403 9.81659L7.35184 9.81664L16.0404 1.79642Z" fill="white"/>
<path d="M49.4577 1.79629L49.458 9.81656L58.1463 9.81658L49.4577 1.79629Z" fill="white"/>
<path d="M16.0405 3.3418H49.4582V14.7038H16.0405V3.3418Z" fill="#F8E79A"/>
<path d="M16.0404 3.34183L16.0403 11.362L7.35184 11.362L16.0404 3.34183Z" fill="#F8E79A"/>
<path d="M49.4577 3.3417L49.458 11.362L58.1463 11.362L49.4577 3.3417Z" fill="#F8E79A"/>
<mask id="path-8-inside-1_17_726" fill="white">
<path d="M0 9.35693H106.936V82.8757H0V9.35693Z"/>
</mask>
<path d="M0 9.35693H106.936V82.8757H0V9.35693Z" fill="#F8E79A"/>
<path d="M0 9.35693V6.35693H-2V9.35693H0ZM0 12.3569H106.936V6.35693H0V12.3569ZM2 82.8757V9.35693H-2V82.8757H2Z" fill="white" mask="url(#path-8-inside-1_17_726)"/>
</svg>
