<svg width="146" height="118" viewBox="0 0 146 118" fill="none" xmlns="http://www.w3.org/2000/svg">
<rect y="9" width="10" height="104" fill="#471A14"/>
<rect x="134" y="14" width="12" height="99" fill="#0D0000"/>
<path d="M4.90186 109H141.043V117.5H4.90186V109Z" fill="#070000"/>
<path d="M5 9.5H141V113H5V9.5Z" fill="#400D16"/>
<path d="M9 98.6812H70.6698V108.191H9V98.6812Z" fill="#A26978"/>
<path d="M75 14L136 14.0011V108L75 107.999V14Z" fill="#9B6877"/>
<path d="M14.2822 98.707H65.9098V103.377H14.2822V98.707Z" fill="#D9D9D9"/>
<path d="M71 9.5H131.658V103H71V9.5Z" fill="#D9D9D9"/>
<path d="M4.90137 0.123535H61.2298V98.6857H4.90137V0.123535Z" fill="#87888A"/>
<path d="M66 0H127V98.7125H66V0Z" fill="#87888A"/>
<path d="M9.60352 4.81982L56.5236 4.81984V94.0001L9.60352 94.0001V4.81982Z" fill="#FBFFFF"/>
<path d="M70.5 4.82178L122.5 4.99991V94.178L70.5 93.9999V4.82178Z" fill="#FBFFFF"/>
<path d="M61 19H56.5V28.5H75.5V19H70.5V23.5H61V19Z" fill="#000105"/>
<path d="M66 19H61V23.5H66V19Z" fill="#F9FFFF"/>
<path d="M66 23.5V19H70.5V23.5H66Z" fill="#AFB9B8"/>
<path d="M61 47H56.5V56.5H75.5V47H70.5V51.5H61V47Z" fill="#000105"/>
<path d="M66 47H61V51.5H66V47Z" fill="#F9FFFF"/>
<path d="M66 51.5V47H70.5V51.5H66Z" fill="#AFB9B8"/>
<path d="M19 51.7725H52V56.5002H19V51.7725Z" fill="#0D1B7C"/>
<path d="M19 61H52V65.7277H19V61Z" fill="#0D1B7C"/>
<path d="M19 71H52V75.7277H19V71Z" fill="#0D1B7C"/>
<path d="M19 80H52V84.7277H19V80Z" fill="#0D1B7C"/>
<path d="M80 24H113V28.7277H80V24Z" fill="#0D1B7C"/>
<path d="M80 33H113V37.7277H80V33Z" fill="#0D1B7C"/>
<path d="M80 42H113V46.7277H80V42Z" fill="#0D1B7C"/>
<path d="M80 52H113V56.7277H80V52Z" fill="#0D1B7C"/>
<path d="M80 61H113V65.7277H80V61Z" fill="#0D1B7C"/>
<path d="M80 71H113V75.7277H80V71Z" fill="#0D1B7C"/>
<path d="M80 80H113V84.7277H80V80Z" fill="#0D1B7C"/>
<path d="M23.5 23.5V19H28.5V14H42.5V19H47V28H42V33H37.5V38H47V42.5H23.5V37.5H28.5V33H33V28.5H37.5V19H28.5V23.5H23.5Z" fill="#AA1E29"/>
</svg>
