<svg width="114" height="151" viewBox="0 0 114 151" fill="none" xmlns="http://www.w3.org/2000/svg">
<rect x="7.125" width="99.75" height="136.266" fill="black"/>
<rect x="7.125" y="7.125" width="99.75" height="136.266" fill="black"/>
<rect x="14.25" y="7.125" width="99.75" height="136.266" fill="black"/>
<rect y="7.125" width="99.75" height="136.266" fill="black"/>
<rect x="7.125" y="14.25" width="99.75" height="136.266" fill="black"/>
<rect x="7.125" y="7.125" width="99.75" height="136.266" fill="#32697E"/>
<rect x="14.25" y="14.25" width="85.5" height="21.375" fill="black"/>
<rect x="21.375" y="21.375" width="71.25" height="14.25" fill="#B1BDBD"/>
<rect x="28.5" y="28.5" width="64.125" height="7.125" fill="#E0FFFF"/>
<rect x="7.125" y="7.125" width="92.625" height="7.125" fill="#68B7D5"/>
<rect x="7.125" y="14.25" width="7.125" height="122.016" fill="#68B7D5"/>
<rect x="14.25" y="49.875" width="7.125" height="7.125" fill="#68B7D4"/>
<rect x="21.375" y="49.875" width="7.125" height="7.125" fill="#036185"/>
<rect x="21.375" y="57" width="7.125" height="7.125" fill="#143440"/>
<rect x="14.25" y="57" width="7.125" height="7.125" fill="#036185"/>
<rect x="14.25" y="71.25" width="7.125" height="7.125" fill="#68B7D4"/>
<rect x="21.375" y="71.25" width="7.125" height="7.125" fill="#036185"/>
<rect x="21.375" y="78.375" width="7.125" height="7.125" fill="#143440"/>
<rect x="14.25" y="78.375" width="7.125" height="7.125" fill="#036185"/>
<rect x="14.25" y="92.625" width="7.125" height="7.125" fill="#68B7D4"/>
<rect x="21.375" y="92.625" width="7.125" height="7.125" fill="#036185"/>
<rect x="21.375" y="99.75" width="7.125" height="7.125" fill="#143440"/>
<rect x="14.25" y="99.75" width="7.125" height="7.125" fill="#036185"/>
<rect x="14.25" y="114" width="7.125" height="7.125" fill="#68B7D4"/>
<rect x="21.375" y="114" width="7.125" height="7.125" fill="#036185"/>
<rect x="21.375" y="121.125" width="7.125" height="7.125" fill="#143440"/>
<rect x="14.25" y="121.125" width="7.125" height="7.125" fill="#036185"/>
<rect x="38.2969" y="49.875" width="7.125" height="7.125" fill="#68B7D4"/>
<rect x="45.4219" y="49.875" width="7.125" height="7.125" fill="#036185"/>
<rect x="45.4219" y="57" width="7.125" height="7.125" fill="#143440"/>
<rect x="38.2969" y="57" width="7.125" height="7.125" fill="#036185"/>
<rect x="38.2969" y="71.25" width="7.125" height="7.125" fill="#68B7D4"/>
<rect x="45.4219" y="71.25" width="7.125" height="7.125" fill="#036185"/>
<rect x="45.4219" y="78.375" width="7.125" height="7.125" fill="#143440"/>
<rect x="38.2969" y="78.375" width="7.125" height="7.125" fill="#036185"/>
<rect x="38.2969" y="92.625" width="7.125" height="7.125" fill="#68B7D4"/>
<rect x="45.4219" y="92.625" width="7.125" height="7.125" fill="#036185"/>
<rect x="45.4219" y="99.75" width="7.125" height="7.125" fill="#143440"/>
<rect x="38.2969" y="99.75" width="7.125" height="7.125" fill="#036185"/>
<rect x="38.2969" y="114" width="7.125" height="7.125" fill="#68B7D4"/>
<rect x="45.4219" y="114" width="7.125" height="7.125" fill="#036185"/>
<rect x="45.4219" y="121.125" width="7.125" height="7.125" fill="#143440"/>
<rect x="38.2969" y="121.125" width="7.125" height="7.125" fill="#036185"/>
<rect x="61.4531" y="49.875" width="7.125" height="7.125" fill="#68B7D4"/>
<rect x="68.5781" y="49.875" width="7.125" height="7.125" fill="#036185"/>
<rect x="68.5781" y="57" width="7.125" height="7.125" fill="#143440"/>
<rect x="61.4531" y="57" width="7.125" height="7.125" fill="#036185"/>
<rect x="61.4531" y="71.25" width="7.125" height="7.125" fill="#68B7D4"/>
<rect x="68.5781" y="71.25" width="7.125" height="7.125" fill="#036185"/>
<rect x="68.5781" y="78.375" width="7.125" height="7.125" fill="#143440"/>
<rect x="61.4531" y="78.375" width="7.125" height="7.125" fill="#036185"/>
<rect x="61.4531" y="92.625" width="7.125" height="7.125" fill="#68B7D4"/>
<rect x="68.5781" y="92.625" width="7.125" height="7.125" fill="#036185"/>
<rect x="68.5781" y="99.75" width="7.125" height="7.125" fill="#143440"/>
<rect x="61.4531" y="99.75" width="7.125" height="7.125" fill="#036185"/>
<rect x="61.4531" y="114" width="7.125" height="7.125" fill="#68B7D4"/>
<rect x="68.5781" y="114" width="7.125" height="7.125" fill="#036185"/>
<rect x="68.5781" y="121.125" width="7.125" height="7.125" fill="#143440"/>
<rect x="61.4531" y="121.125" width="7.125" height="7.125" fill="#036185"/>
<rect x="85.5" y="49.875" width="7.125" height="7.125" fill="#68B7D4"/>
<rect x="92.625" y="49.875" width="7.125" height="7.125" fill="#036185"/>
<rect x="92.625" y="57" width="7.125" height="7.125" fill="#143440"/>
<rect x="85.5" y="57" width="7.125" height="7.125" fill="#036185"/>
<rect x="85.5" y="71.25" width="7.125" height="7.125" fill="#68B7D4"/>
<rect x="92.625" y="71.25" width="7.125" height="7.125" fill="#036185"/>
<rect x="92.625" y="78.375" width="7.125" height="7.125" fill="#143440"/>
<rect x="85.5" y="78.375" width="7.125" height="7.125" fill="#036185"/>
<rect x="85.5" y="92.625" width="7.125" height="7.125" fill="#68B7D4"/>
<rect x="92.625" y="92.625" width="7.125" height="7.125" fill="#036185"/>
<rect x="92.625" y="99.75" width="7.125" height="7.125" fill="#143440"/>
<rect x="85.5" y="99.75" width="7.125" height="7.125" fill="#036185"/>
<rect x="85.5" y="114" width="7.125" height="7.125" fill="#68B7D4"/>
<rect x="92.625" y="114" width="7.125" height="7.125" fill="#036185"/>
<rect x="92.625" y="121.125" width="7.125" height="7.125" fill="#143440"/>
<rect x="85.5" y="121.125" width="7.125" height="7.125" fill="#036185"/>
<rect x="7.125" y="136.266" width="99.75" height="7.125" fill="#18282F"/>
</svg>
