<svg width="146" height="145" viewBox="0 0 146 145" fill="none" xmlns="http://www.w3.org/2000/svg">
<rect x="0.5" y="42" width="102" height="99" fill="#807C97"/>
<rect x="4.5" y="47" width="94" height="89" fill="#D9AFD3"/>
<rect x="9.5" y="51" width="84" height="80" fill="#790778"/>
<path d="M37 117V121.5H18.5V117H23V112.5H28V103H32.5V93.5002H37V84.0002H42V75.0002H46.5V65.6826H51.5V70.5002H56V80.0002H60.5V89.0002H65V98.5002H70V108H74.5V117H79V121.5H56V117H65.5V112.5H60.5V103H37V108H32.5V117H37Z" fill="white"/>
<path d="M56 98.5H41.5V89.5H46.5V84.5H51V89.5H56V98.5Z" fill="#79027A"/>
<path d="M42.5 0H140.5L102.5 42H0L42.5 0Z" fill="#827058"/>
<path d="M43 4H137L103 42H4L43 4Z" fill="#F4B8C0"/>
<path d="M45.5 4H132.5L100.5 39H10L45.5 4Z" fill="#CC1B07"/>
<path d="M46.5 28H37.5V32.5L93.5 33V28H98V23.5H103.5V18.5H107.5V9H51V14H56V18.5H51V23.5H46.5V28Z" fill="#FFF7EF"/>
<rect x="69.5" y="14" width="24" height="5" fill="#C2140D"/>
<rect x="60.5" y="23" width="24" height="5" fill="#C2140D"/>
<path d="M102.5 42L140.5 0L141.5 102.5L124 120L102.5 136.5V42Z" fill="#A5AAFE"/>
<path d="M106 44L137.5 8.5V98L106 126V44Z" fill="#081285"/>
<path d="M112 60.5V56H116.5V51.5H121.5V42H126.5V89H130.5V93.5H126.5V98.5H121.5V103H116.5V107.5H112V103H116.5V60.5H112Z" fill="white"/>
<path d="M0 145V140.5H98.5V136H103.5V131H108V126.5H113V122H122V117H127V112.5H131.5V108H136V103H141L140.5 0H145L145.5 103H141V108H136V112.5H131.5V117H127V122H122V126.5H117.5V131H113V136H108V140.5H103V145H0Z" fill="#030230"/>
</svg>
