<svg width="178" height="177" viewBox="0 0 178 177" fill="none" xmlns="http://www.w3.org/2000/svg">
<path d="M47.5372 105.964C47.5372 139.654 130.688 148.5 118.538 148.5C120.038 152 57.5379 190.535 11.5376 128C-9.46186 89.9999 13.387 44.9644 25.5372 44.9644C37.6875 44.9644 47.5372 72.275 47.5372 105.964Z" fill="#05FF00"/>
<path d="M87.6818 91.6339C105.639 120.494 130.6 142.05 121.038 148C111.475 153.95 61.995 156.824 44.0376 127.964C26.0803 99.1048 27.4742 52.4147 37.0371 46.4644C53.0531 27.4645 69.7245 62.7743 87.6818 91.6339Z" fill="#51FF4E"/>
<path d="M114.039 68.4647C138.039 98.4647 133.674 138.852 124.306 144.704C114.937 150.556 98.3412 132.965 76.5375 99.9647C58.0375 71.9647 44.6701 38.8163 54.0384 32.9646C63.4067 27.113 99.5386 41.4647 114.039 68.4647Z" fill="#89FF87"/>
<path d="M126.034 42.4647C168.535 81.4647 137.904 132.145 130.537 140C121.037 149 141.038 99.9646 106.037 68.4646C83.276 47.1192 49.6681 33.3204 57.0351 25.4647C64.4021 17.6091 105.535 20.4648 126.034 42.4647Z" fill="#B4FFB3"/>
<path d="M63.0381 24.9646C65.7556 29.1266 55.223 40.0333 43.8933 47.431C32.5636 54.8286 18.2553 60.1266 15.5378 55.9647C12.0376 53.4647 23.2081 41.8623 34.5378 34.4647C45.8675 27.067 60.3206 20.8027 63.0381 24.9646Z" fill="white"/>
<path d="M75.5376 164.464C116.101 164.464 149.038 132.258 149.038 92.4644C149.038 52.6702 116.101 20.4644 75.5376 20.4644C34.9746 20.4644 2.0376 52.6702 2.0376 92.4644C2.0376 132.258 34.9746 164.464 75.5376 164.464Z" stroke="black" stroke-width="3"/>
</svg>
